<mxfile host="app.diagrams.net" modified="2023-07-07T10:29:53.407Z" agent="Mozilla/5.0 (X11; Ubuntu; Linux x86_64; rv:109.0) Gecko/20100101 Firefox/115.0" etag="qKzdiKoG6NBQH6UR4V9y" version="21.5.2" type="device">
  <diagram name="Page-1" id="d66fe2ae-3e9f-cf2f-6d29-e24063ad5d60">
    <mxGraphModel dx="2534" dy="1648" grid="1" gridSize="10" guides="1" tooltips="1" connect="1" arrows="1" fold="1" page="1" pageScale="1" pageWidth="1100" pageHeight="850" background="none" math="0" shadow="0">
      <root>
        <mxCell id="0" />
        <mxCell id="1" parent="0" />
        <mxCell id="i6YwtUnQKHBLyYmnIK1T-20" value="&lt;font style=&quot;font-size: 20px;&quot;&gt;50 ms&lt;/font&gt;" style="edgeStyle=orthogonalEdgeStyle;rounded=0;orthogonalLoop=1;jettySize=auto;html=1;entryX=0;entryY=0.5;entryDx=0;entryDy=0;entryPerimeter=0;strokeWidth=3;endArrow=classic;endFill=1;startArrow=classic;startFill=1;fillColor=#f8cecc;strokeColor=#b85450;" parent="1" source="i6YwtUnQKHBLyYmnIK1T-14" target="i6YwtUnQKHBLyYmnIK1T-18" edge="1">
          <mxGeometry relative="1" as="geometry" />
        </mxCell>
        <mxCell id="HWIHHWXbk4KBUpeE7iqn-2" value="&lt;font style=&quot;font-size: 20px;&quot;&gt;5 ms&lt;/font&gt;" style="rounded=0;orthogonalLoop=1;jettySize=auto;html=1;entryX=0;entryY=0.5;entryDx=0;entryDy=0;entryPerimeter=0;strokeWidth=3;startArrow=classic;startFill=1;fillColor=#d5e8d4;strokeColor=#82b366;" parent="1" target="i6YwtUnQKHBLyYmnIK1T-28" edge="1">
          <mxGeometry x="0.391" y="-3" relative="1" as="geometry">
            <mxPoint x="-800" y="-750" as="sourcePoint" />
            <mxPoint as="offset" />
          </mxGeometry>
        </mxCell>
        <mxCell id="i6YwtUnQKHBLyYmnIK1T-14" value="" style="fontColor=#0066CC;verticalAlign=top;verticalLabelPosition=bottom;labelPosition=center;align=center;html=1;outlineConnect=0;fillColor=#CCCCCC;strokeColor=#6881B3;gradientColor=none;gradientDirection=north;strokeWidth=2;shape=mxgraph.networks.radio_tower;perimeterSpacing=10;" parent="1" vertex="1">
          <mxGeometry x="-860" y="-800" width="55" height="100" as="geometry" />
        </mxCell>
        <mxCell id="i6YwtUnQKHBLyYmnIK1T-19" style="rounded=0;orthogonalLoop=1;jettySize=auto;html=1;exitX=1;exitY=0.5;exitDx=0;exitDy=0;exitPerimeter=0;strokeWidth=3;startArrow=classic;startFill=1;" parent="1" source="i6YwtUnQKHBLyYmnIK1T-16" target="i6YwtUnQKHBLyYmnIK1T-14" edge="1">
          <mxGeometry relative="1" as="geometry" />
        </mxCell>
        <mxCell id="i6YwtUnQKHBLyYmnIK1T-16" value="&lt;font style=&quot;font-size: 20px;&quot;&gt;UTENTE&lt;/font&gt;" style="fontColor=#0066CC;verticalAlign=top;verticalLabelPosition=bottom;labelPosition=center;align=center;html=1;outlineConnect=0;fillColor=#CCCCCC;strokeColor=#6881B3;gradientColor=none;gradientDirection=north;strokeWidth=2;shape=mxgraph.networks.mobile;perimeterSpacing=10;" parent="1" vertex="1">
          <mxGeometry x="-1040" y="-740" width="50" height="100" as="geometry" />
        </mxCell>
        <mxCell id="i6YwtUnQKHBLyYmnIK1T-30" style="rounded=0;orthogonalLoop=1;jettySize=auto;html=1;exitX=1;exitY=0.5;exitDx=0;exitDy=0;exitPerimeter=0;entryX=0;entryY=0.5;entryDx=0;entryDy=0;entryPerimeter=0;strokeWidth=3;startArrow=classic;startFill=1;" parent="1" source="i6YwtUnQKHBLyYmnIK1T-18" target="i6YwtUnQKHBLyYmnIK1T-29" edge="1">
          <mxGeometry relative="1" as="geometry" />
        </mxCell>
        <mxCell id="i6YwtUnQKHBLyYmnIK1T-18" value="&lt;font style=&quot;font-size: 20px;&quot;&gt;&lt;b&gt;NODO B&lt;/b&gt;&lt;/font&gt;" style="fontColor=#0066CC;verticalAlign=top;verticalLabelPosition=bottom;labelPosition=center;align=center;html=1;outlineConnect=0;fillColor=#CCCCCC;strokeColor=#6881B3;gradientColor=none;gradientDirection=north;strokeWidth=2;shape=mxgraph.networks.rack;perimeterSpacing=10;" parent="1" vertex="1">
          <mxGeometry x="-610" y="-800" width="50" height="100" as="geometry" />
        </mxCell>
        <mxCell id="i6YwtUnQKHBLyYmnIK1T-22" value="&lt;font style=&quot;font-size: 20px;&quot;&gt;5 ms&lt;/font&gt;" style="edgeStyle=orthogonalEdgeStyle;rounded=0;orthogonalLoop=1;jettySize=auto;html=1;entryX=0;entryY=0.5;entryDx=0;entryDy=0;entryPerimeter=0;strokeWidth=3;startArrow=classicThin;startFill=1;fillColor=#d5e8d4;strokeColor=#82b366;" parent="1" source="i6YwtUnQKHBLyYmnIK1T-23" target="i6YwtUnQKHBLyYmnIK1T-28" edge="1">
          <mxGeometry relative="1" as="geometry" />
        </mxCell>
        <mxCell id="HWIHHWXbk4KBUpeE7iqn-1" value="&lt;font style=&quot;font-size: 20px;&quot;&gt;50 ms&lt;/font&gt;" style="rounded=0;orthogonalLoop=1;jettySize=auto;html=1;entryX=0;entryY=0.5;entryDx=0;entryDy=0;entryPerimeter=0;strokeWidth=3;startArrow=classic;startFill=1;fillColor=#f8cecc;strokeColor=#b85450;" parent="1" target="i6YwtUnQKHBLyYmnIK1T-18" edge="1">
          <mxGeometry x="0.391" y="3" relative="1" as="geometry">
            <mxPoint x="-800" y="-450" as="sourcePoint" />
            <mxPoint as="offset" />
          </mxGeometry>
        </mxCell>
        <mxCell id="i6YwtUnQKHBLyYmnIK1T-23" value="" style="fontColor=#0066CC;verticalAlign=top;verticalLabelPosition=bottom;labelPosition=center;align=center;html=1;outlineConnect=0;fillColor=#CCCCCC;strokeColor=#6881B3;gradientColor=none;gradientDirection=north;strokeWidth=2;shape=mxgraph.networks.radio_tower;perimeterSpacing=10;" parent="1" vertex="1">
          <mxGeometry x="-860" y="-500" width="55" height="100" as="geometry" />
        </mxCell>
        <mxCell id="i6YwtUnQKHBLyYmnIK1T-24" style="rounded=0;orthogonalLoop=1;jettySize=auto;html=1;exitX=1;exitY=0.5;exitDx=0;exitDy=0;exitPerimeter=0;strokeWidth=3;startArrow=classic;startFill=1;" parent="1" source="i6YwtUnQKHBLyYmnIK1T-25" target="i6YwtUnQKHBLyYmnIK1T-23" edge="1">
          <mxGeometry relative="1" as="geometry" />
        </mxCell>
        <mxCell id="i6YwtUnQKHBLyYmnIK1T-25" value="&lt;font style=&quot;font-size: 20px;&quot;&gt;UTENTE&lt;/font&gt;" style="fontColor=#0066CC;verticalAlign=top;verticalLabelPosition=bottom;labelPosition=center;align=center;html=1;outlineConnect=0;fillColor=#CCCCCC;strokeColor=#6881B3;gradientColor=none;gradientDirection=north;strokeWidth=2;shape=mxgraph.networks.mobile;perimeterSpacing=10;" parent="1" vertex="1">
          <mxGeometry x="-1040" y="-560" width="50" height="100" as="geometry" />
        </mxCell>
        <mxCell id="i6YwtUnQKHBLyYmnIK1T-32" style="rounded=0;orthogonalLoop=1;jettySize=auto;html=1;entryX=0;entryY=0.5;entryDx=0;entryDy=0;entryPerimeter=0;strokeWidth=3;startArrow=classic;startFill=1;" parent="1" target="i6YwtUnQKHBLyYmnIK1T-29" edge="1">
          <mxGeometry relative="1" as="geometry">
            <mxPoint x="-430" y="-600" as="targetPoint" />
            <Array as="points" />
            <mxPoint x="-550" y="-450" as="sourcePoint" />
          </mxGeometry>
        </mxCell>
        <mxCell id="i6YwtUnQKHBLyYmnIK1T-28" value="&lt;font style=&quot;font-size: 20px;&quot;&gt;&lt;b&gt;NODO C&lt;/b&gt;&lt;/font&gt;" style="fontColor=#0066CC;verticalAlign=top;verticalLabelPosition=bottom;labelPosition=center;align=center;html=1;outlineConnect=0;fillColor=#CCCCCC;strokeColor=#6881B3;gradientColor=none;gradientDirection=north;strokeWidth=2;shape=mxgraph.networks.rack;perimeterSpacing=10;" parent="1" vertex="1">
          <mxGeometry x="-610" y="-500" width="50" height="100" as="geometry" />
        </mxCell>
        <mxCell id="i6YwtUnQKHBLyYmnIK1T-29" value="&lt;font style=&quot;font-size: 20px;&quot;&gt;NODO &lt;br&gt;CONTROL PLANE&lt;/font&gt;" style="fontColor=#0066CC;verticalAlign=top;verticalLabelPosition=bottom;labelPosition=center;align=center;html=1;outlineConnect=0;fillColor=#CCCCCC;strokeColor=#6881B3;gradientColor=none;gradientDirection=north;strokeWidth=2;shape=mxgraph.networks.rack;perimeterSpacing=10;" parent="1" vertex="1">
          <mxGeometry x="-370" y="-650" width="50" height="100" as="geometry" />
        </mxCell>
      </root>
    </mxGraphModel>
  </diagram>
</mxfile>
